<svg version="1.2" xmlns="http://www.w3.org/2000/svg" viewBox="0 0 1011 728" width="1011" height="728">
	<title>draw2-svg</title>
	<style>
		.s0 { fill: #3f3d56 } 
		.s1 { fill: #f2f2f2 } 
		.s2 { fill: #9212ce } 
		.s3 { fill: #ff6584 } 
		.s4 { fill: #e6e6e6 } 
		.s5 { fill: #ffffff } 
		.s6 { opacity: .2;fill: #9212ce } 
		.s7 { fill: #2f2e41 } 
		.s8 { fill: #ffb9b9 } 
		.s9 { opacity: .1;fill: #000000 } 
	</style>
	<path id="Layer" class="s0" d="m0 712c0 0 37.6-9.2 112.5-17.8l-1.4-19.2c-11.2-108 77.1-268.4 77.1-268.4-44.8 104.1-50.8 198.3-49.9 249.1 11.7-16.5 34.1-34.2 76.8-44.7 0 0-55.9 38.9-72.4 80 56.5-5.6 129.6-10.4 219.2-11.5l-18.4-36.9 36 31.1c0 0 16.4-91.4 48.6-94.5l-24.9 89.5c0 0 28.1-17.6 34.6-15.7l-16.3 26.4c106.9 0.7 234.1 6.6 381.3 21.8l-17.5-34.8 36.1 31.1c0 0 16.4-91.4 48.6-94.6l-25 89.5c0 0 28.2-17.5 34.6-15.6l-19 30.8q72.2 8.2 150.3 19.7z"/>
	<path id="Layer" class="s0" d="m537.5 29.1v648.2c0 3.9-0.7 7.6-2.2 11.2-1.5 3.5-3.6 6.7-6.3 9.4-2.7 2.7-5.9 4.9-9.5 6.3-3.5 1.5-7.3 2.2-11.1 2.2h-263.2c-3.8 0-7.6-0.7-11.1-2.2-3.5-1.4-6.8-3.6-9.5-6.3-2.7-2.7-4.8-5.9-6.3-9.4-1.4-3.6-2.2-7.3-2.2-11.2v-648.2c0-3.8 0.8-7.6 2.2-11.1 1.5-3.6 3.6-6.8 6.3-9.5 2.8-2.7 6-4.8 9.5-6.3 3.5-1.4 7.3-2.2 11.1-2.2h39.4v5.1c0 3.1 0.6 6.2 1.9 9.1 1.2 2.9 2.9 5.6 5.1 7.8 2.3 2.2 4.9 4 7.8 5.2 2.9 1.2 6.1 1.8 9.2 1.8h133.8q2 0 3.8-0.3 1.9-0.3 3.7-0.9 1.8-0.5 3.5-1.4 1.7-0.9 3.3-2 0.3-0.3 0.6-0.5 0.3-0.2 0.6-0.5 0.3-0.2 0.6-0.5 0.2-0.3 0.5-0.5 1.8-1.7 3.2-3.7 1.4-2 2.3-4.2 1-2.3 1.4-4.6 0.5-2.4 0.5-4.8v-5.1h42c3.8 0 7.6 0.8 11.1 2.2 3.6 1.5 6.8 3.6 9.5 6.3 2.7 2.7 4.8 5.9 6.3 9.5 1.5 3.5 2.2 7.3 2.2 11.1z"/>
	<path id="Layer" class="s1" d="m289.4 115c-3.8 0-7-3.1-7-7 0-3.9 3.2-7 7-7 3.9 0 7 3.1 7 7 0 3.9-3.1 7-7 7z"/>
	<path id="Layer" class="s2" d="m473.6 43c5.6 6.3 11.7 12.1 18.5 17.1 6.7 5.1 14 9.5 21.6 13 7.6 3.6 15.6 6.4 23.8 8.3v3.2c-8.4-2-16.6-4.8-24.5-8.4-7.8-3.7-15.3-8.1-22.2-13.3-7-5.1-13.4-11-19.1-17.5-5.7-6.5-10.8-13.5-15-21q0.3-0.3 0.6-0.5 0.3-0.2 0.6-0.5 0.3-0.2 0.6-0.5 0.2-0.3 0.5-0.5c4.2 7.3 9 14.2 14.6 20.6z"/>
	<path id="Layer" class="s2" d="m421.7 69.2c9.3 12.4 20 23.5 32.1 33.1 12.1 9.6 25.4 17.6 39.5 23.8 14.1 6.2 29 10.5 44.2 12.9v3.1c-15.6-2.4-30.9-6.8-45.4-13.2-14.5-6.3-28.1-14.5-40.5-24.4-12.3-9.9-23.4-21.4-32.8-34.1-9.4-12.7-17.1-26.6-22.9-41.4h3.3c5.8 14.4 13.3 27.9 22.5 40.2z"/>
	<path id="Layer" class="s2" d="m537.5 197.1v3.1c-95.7-11.1-175.4-79.4-201.9-171.2h3.2c26.3 90.1 104.7 157.1 198.7 168.1z"/>
	<path id="Layer" class="s1" d="m266.4 159.8v0.4h-1.8v1.8h-0.4v-1.8h-1.8v-0.4h1.8v-1.8h0.4v1.8h1.8z"/>
	<path id="Layer" class="s1" d="m389.4 68.8v0.4h-1.8v1.8h-0.4v-1.8h-1.8v-0.4h1.8v-1.8h0.4v1.8h1.8z"/>
	<path id="Layer" class="s1" d="m284.4 231.8v0.4h-1.8v1.8h-0.4v-1.8h-1.8v-0.4h1.8v-1.8h0.4v1.8h1.8z"/>
	<path id="Layer" class="s1" d="m368.4 178.8v0.4h-1.8v1.8h-0.4v-1.8h-1.8v-0.4h1.8v-1.8h0.4v1.8h1.8z"/>
	<path id="Layer" class="s1" d="m488.4 211.8v0.4h-1.8v1.8h-0.4v-1.8h-1.8v-0.4h1.8v-1.8h0.4v1.8h1.8z"/>
	<path id="Layer" class="s3" d="m467.4 129c-2.2 0-4-1.8-4-4 0-2.2 1.8-4 4-4 2.2 0 4 1.8 4 4 0 2.2-1.8 4-4 4z"/>
	<path id="Layer" class="s4" d="m325.8 232.7l-2.3 0.2c-0.4-4.6-0.9-9.2-1.6-13.8l2.2-0.3c0.7 4.6 1.3 9.3 1.7 13.9z"/>
	<path id="Layer" class="s4" d="m321.5 205l-2.3 0.5c-1-4.5-2.2-9-3.5-13.4l2.2-0.6c1.4 4.4 2.6 9 3.6 13.5z"/>
	<path id="Layer" class="s4" d="m313.4 178.2l-2.1 0.8c-1.7-4.3-3.5-8.6-5.4-12.8l2.1-1c2 4.3 3.8 8.6 5.4 13z"/>
	<path id="Layer" class="s4" d="m301.7 152.7l-2 1.1c-2.2-4-4.6-8-7-11.9l1.9-1.2c2.5 3.9 4.9 7.9 7.1 12z"/>
	<path id="Layer" class="s4" d="m286.7 129.1l-1.9 1.4c-2.7-3.7-5.6-7.4-8.6-10.9l1.7-1.5c3.1 3.6 6 7.3 8.8 11z"/>
	<path id="Layer" class="s4" d="m268.5 107.8l-1.6 1.6c-3.3-3.3-6.6-6.5-10.1-9.6l1.6-1.7c3.4 3.1 6.9 6.3 10.1 9.7z"/>
	<path id="Layer" class="s4" d="m247.6 89.1l-1.4 1.8c-3.6-2.8-7.4-5.6-11.2-8.2l1.2-1.9c3.9 2.7 7.7 5.4 11.4 8.3z"/>
	<path id="Layer" class="s4" d="m224.3 73.4l-1.1 2q-3.5-2-7.1-3.9v-2.6q4.2 2.2 8.2 4.5z"/>
	<path id="Layer" class="s4" d="m323.6 434.8c0.4-2.2 0.7-4.5 1-6.8l2.3 0.3q-0.5 3.5-1 6.9z"/>
	<path id="Layer" class="s4" d="m320.9 448.4l2.2 0.5c-1.1 4.6-2.3 9.1-3.7 13.6l-2.2-0.7c1.4-4.4 2.6-8.9 3.7-13.4z"/>
	<path id="Layer" class="s4" d="m312.6 474.9l2.2 0.8c-1.7 4.3-3.6 8.7-5.6 12.9l-2-1c1.9-4.1 3.8-8.4 5.4-12.7z"/>
	<path id="Layer" class="s4" d="m300.8 500l2 1.1c-2.2 4.1-4.7 8.1-7.2 12l-2-1.3c2.6-3.8 5-7.8 7.2-11.8z"/>
	<path id="Layer" class="s4" d="m285.7 523.2l1.8 1.4c-2.8 3.7-5.8 7.4-8.8 10.9l-1.8-1.5c3.1-3.5 6-7.1 8.8-10.8z"/>
	<path id="Layer" class="s4" d="m267.5 544.1l1.6 1.7c-3.3 3.3-6.7 6.5-10.2 9.6l-1.5-1.8c3.4-3 6.8-6.2 10.1-9.5z"/>
	<path id="Layer" class="s4" d="m246.6 562.4l1.4 1.8c-3.7 2.8-7.5 5.6-11.4 8.1l-1.3-1.9c3.8-2.5 7.7-5.2 11.3-8z"/>
	<path id="Layer" class="s4" d="m224.6 579.6q-4.2 2.4-8.5 4.6v-2.6q3.7-1.9 7.4-3.9z"/>
	<path id="Layer" class="s4" d="m324.3 247.1h2.3c0 2.3 0 4.6 0 6.9h-2.3c0-2.3 0-4.6 0-6.9z"/>
	<path id="Layer" class="s5" d="m226.2 301.6h235.2c8.7 0 17.3 1.7 25.3 5.1 8 3.3 15.3 8.1 21.4 14.3 6.1 6.1 11 13.4 14.3 21.4 3.3 8 5 16.6 5 25.2v8.8h-235.2c-8.7 0-17.2-1.7-25.2-5.1-8-3.3-15.3-8.1-21.5-14.3-6.1-6.1-10.9-13.4-14.3-21.4-3.3-8-5-16.6-5-25.2v-8.8c-226.2-301.6-226.2-301.6-226.2-301.6z"/>
	<path id="Layer" class="s1" d="m382.3 705.5c-0.2-0.4-5.6-9.4-7.5-28.2-1.7-17.2-0.6-46.2 14.4-86.6 28.5-76.7-6.5-138.6-6.9-139.2l1.7-1c0.1 0.2 9.2 15.9 14.5 41 1.8 8.3 2.9 16.7 3.5 25.1 0.6 8.5 0.6 16.9-0.1 25.4-0.6 8.4-1.8 16.8-3.6 25-1.8 8.3-4.2 16.4-7.2 24.3-28.4 76.6-7.3 112.8-7.1 113.2z"/>
	<path id="Layer" class="s2" d="m371.2 447c-7.2 0-13-5.8-13-13 0-7.2 5.8-13 13-13 7.2 0 13 5.8 13 13 0 7.2-5.8 13-13 13z"/>
	<path id="Layer" class="s1" d="m412.2 495c-7.2 0-13-5.8-13-13 0-7.2 5.8-13 13-13 7.2 0 13 5.8 13 13 0 7.2-5.8 13-13 13z"/>
	<path id="Layer" class="s2" d="m384.2 527c-7.2 0-13-5.8-13-13 0-7.2 5.8-13 13-13 7.2 0 13 5.8 13 13 0 7.2-5.8 13-13 13z"/>
	<path id="Layer" class="s2" d="m418.2 554c-7.2 0-13-5.8-13-13 0-7.2 5.8-13 13-13 7.2 0 13 5.8 13 13 0 7.2-5.8 13-13 13z"/>
	<path id="Layer" class="s1" d="m374.2 596c-7.2 0-13-5.8-13-13 0-7.2 5.8-13 13-13 7.2 0 13 5.8 13 13 0 7.2-5.8 13-13 13z"/>
	<path id="Layer" class="s1" d="m390.2 706c0 0-13-32 26-56z"/>
	<path id="Layer" class="s1" d="m374.2 705.4c0 0-5.9-34-51.7-33.7z"/>
	<path id="Layer" class="s6" d="m322.4 419c-44.2 0-80-35.8-80-80 0-44.2 35.8-80 80-80 44.3 0 80 35.8 80 80 0 44.2-35.7 80-80 80z"/>
	<path id="Layer" class="s6" d="m322.4 395.3c-31.1 0-56.3-25.1-56.3-56.3 0-31.2 25.2-56.3 56.3-56.3 31.2 0 56.4 25.1 56.4 56.3 0 31.2-25.2 56.3-56.4 56.3z"/>
	<path id="Layer" class="s2" d="m322.4 376.2c-20.5 0-37.2-16.6-37.2-37.2 0-20.6 16.7-37.2 37.2-37.2 20.6 0 37.2 16.6 37.2 37.2 0 20.6-16.6 37.2-37.2 37.2z"/>
	<path id="Layer" class="s5" d="m329 332.5q-0.1 0.7-0.5 1.4-0.3 0.7-0.8 1.3-0.4 0.5-1 1l2.5 17.4h-13.5l2.5-17.4c-1.8-1.4-2.8-3.7-2.5-6 0.3-2.3 1.7-4.3 3.8-5.3 2.1-1 4.6-0.9 6.5 0.4 2 1.2 3.2 3.4 3.2 5.7q0 0.7-0.2 1.5z"/>
	<path id="Layer" class="s7" d="m740.7 141.7c3.9 24.6-10 48.5-10 48.5 0 0-139.2 4.6-132.3-10 7-14.6 3.9-26.9 7.7-41.5 3.9-14.6 24.6-29.3 24.6-29.3 0 0 0.8-1.5-14.6 6.2-15.4 7.7-60 26.1-60 26.1 10.8-14.6 57.7-33 87.7-70.7 30-37.7 52.3-17.7 52.3-17.7 43.1 3.1 40.8 63.8 44.6 88.4z"/>
	<path id="Layer" class="s8" d="m693.4 130.8c0 0-1.4 4.1-6.2 16.6-4.9 12.4 13.1 16.6 13.1 16.6l-11 16.6-33.3 10.4-31.2-15.2c0 0-7.6-10.4 13.2-18 20.8-7.7 15.9-41.6 15.9-41.6z"/>
	<path id="Layer" class="s9" d="m693.4 130.8c0 0-1.4 4.1-6.2 16.6-4.9 12.4 13.1 16.6 13.1 16.6l-11 16.6-33.3 10.4-31.2-15.2c0 0-7.6-10.4 13.2-18 20.8-7.7 15.9-41.6 15.9-41.6z"/>
	<path id="Layer" class="s8" d="m741.2 213.2c0 0-4.8 63.7-3.4 66.5 1.3 2.8 0 99.1 0 99.1 0 0 9.7 51.9-2.8 54.7-12.5 2.8-9.7-58.2-9.7-58.2l-12.5-80.4 1.4-79.6z"/>
	<path id="Layer" class="s9" d="m741.2 213.2c0 0-4.8 63.7-3.4 66.5 1.3 2.8 0 99.1 0 99.1 0 0 9.7 51.9-2.8 54.7-12.5 2.8-9.7-58.2-9.7-58.2l-12.5-80.4 1.4-79.6z"/>
	<path id="Layer" class="s8" d="m666.4 409.9l-43 127.5c6.3 14.6 2.8 61.7-3.4 80.4-6.3 18.7 1.4 42.2 1.4 42.2v4.9l-4.9 5.5-13.1 7.7c0 0-12.5-11.8-10.4-14.6 2-2.8 0.7-28.4 0.7-28.4 0 0-9.1-58.9-9.7-101.1-0.7-42.3 22.1-128.9 22.1-128.9z"/>
	<path id="Layer" class="s7" d="m613 669.7c0 0 6.3-11 10.4-10.3 4.2 0.6 7 27 7 27 0 0-25.7 14.5-28.4 20.1-2.8 5.5-12.5 13.1-34.7 11.7-22.1-1.3 9-31.1 9-31.1 0 0 9-23.6 14.6-27.1 5.5-3.4 13.8 7 13.8 7z"/>
	<path id="Layer" class="s8" d="m743.3 389.9c0 0-25.6 110.8-21.5 128.1 4.2 17.3-4.1 63.8-4.1 63.8l-25 76.2-2.1 17.3-17.3 1.4-1.4-20.1c0 0 13.9-113.6 11.8-128.9q-0.5-3.9-0.8-7.7-0.4-3.9-0.7-7.8-0.2-3.9-0.4-7.8-0.1-3.9-0.2-7.9v-85.9z"/>
	<path id="Layer" class="s7" d="m667.8 671.8l5.1-1.1c0 0 3.9-8.6 8.7-6.5q1.3 0.6 2.6 1.2 1.2 0.7 2.4 1.4 1.2 0.8 2.4 1.5 1.2 0.8 2.3 1.7l2.1 3.9c0 0 4.9 10.4 11.1 17.3 6.2 6.9 13.2 22.2 2.8 23.6-10.4 1.4-24.3 2.1-28.4-1.4-4.2-3.5-1.4-9-5.6-10.4-4.1-1.4-7.6-5.5-6.9-6.9 0.7-1.4 1.4-24.3 1.4-24.3z"/>
	<path id="Layer" class="s8" d="m681.6 140.1c-17 0-30.8-13.8-30.8-30.8 0-17.1 13.8-30.8 30.8-30.8 17.1 0 30.8 13.7 30.8 30.8 0 17-13.7 30.8-30.8 30.8z"/>
	<path id="Layer" class="s2" d="m623.4 163.3l9.2-3.2c0 0-3.6 6 15.8 9.4 19.4 3.5 39.5 4.7 48.5-6.6 0 0 3.4-1.7 8.3 3.2 4.8 4.8 7.6 3.4 7.6 3.4l-3.5 18.1-6.9 33.2-9 25-25.6-5.6-27.7-20.1-10.4-27v-24.9z"/>
	<path id="Layer" class="s2" d="m708 173l6.9-4.8c0 0 23.5 4.1 24.9 15.2l-18 34.6q1.4 3.6 2 7.4 0.7 3.8 0.6 7.6-0.1 3.8-0.9 7.6-0.8 3.7-2.4 7.2c-6.9 16-6.2 19.4-6.2 19.4l-4.9 20.8-87.9 6.9c0 0-3.5-8.3-4.9-9.7-1.4-1.3-1.4-6.2 0-6.2 1.4 0 0-2.1-1.4-4.1-1.4-2.1-2.1-2.8 0-5.6 2.1-2.8-3.4-27.7-3.4-27.7v-27l-23.6-31.2c0 0 8.3-12.5 12.5-13.9 4.1-1.3 23.9-6.8 23.9-6.8l4.5 6.6 6.2 50.1 9 30.5 37.9-6.4 14.8-24.8 9.7-29.1z"/>
	<path id="Layer" class="s2" d="m734.3 179.2l5.5 4.2c0 0 4.9 38.8 3.5 41.6-1.4 2.7-25.6 5.5-26.3 4.1-0.7-1.4 17.3-49.9 17.3-49.9z"/>
	<path id="Layer" class="s7" d="m631.1 157.1l6.9 47.1c31.2 13.1 61-1.4 61-1.4l7.6-40.2 10.4 2.8-7.7 41.6c0 0 11.1 58.2 13.2 63.7 2.1 5.5-6.2 11.1-6.2 12.5 0 1.4 6.2 11.7 6.2 11.7 0 0 34.7 88 35.3 94.3 0.7 6.2-71.3 30.4-91.4 32.5-20.1 2.1-57.5-8.3-63.7-10.4-6.3-2 10.3-56.8 11.7-79.6 1.4-22.9 5.6-27.1 5.6-27.1 0 0-0.7-9 0-11.7 0.7-2.8 3.4-1.4 3.4-1.4l-1.3-4.2c-1.4-13.8 4.8-81.7 4.8-81.7l-6.9-45.8z"/>
	<path id="Layer" class="s7" d="m662.3 73.3l31.9 3.5c0 0 38.1 13.8 24.2 29.8-13.8 15.9-65.1-19.4-65.1-19.4z"/>
	<path id="Layer" fill-rule="evenodd" class="s2" d="m470.4 550l-10.5-12.4 10.3-8.7-8.6-10.4 4.3-3.6-4.8-5.6-3.4 2.9-4.3-5.1 9.4-8 2.9 3.5 6.5-5.5-2.9-3.4 6-5.1 4.7 5.6-3.9 3.3 4.7 5.5 4.3-2.8 9.4 11.2 70.7-58.9c-5.6-12.4-1.2-27 10.4-34.2 11.6-7.1 26.7-4.5 35.2 6.1 8.6 10.6 7.9 25.9-1.5 35.7-9.5 9.8-24.7 11.1-35.6 2.9zm113.9-125.7c-2.2 0.8-4.3 1.9-6.1 3.4-1.8 1.5-3.3 3.4-4.4 5.5-1 2.1-1.7 4.3-1.9 6.7-0.6 7.2 3.2 14 9.6 17.4 6.4 3.3 14.2 2.4 19.7-2.2 5.6-4.7 7.7-12.2 5.6-19.1-2.2-6.9-8.4-11.8-15.6-12.4-2.3-0.2-4.7 0-6.9 0.7z"/>
	<path id="Layer" class="s8" d="m611 223.6l1.4 79.7-12.5 80.3c0 0 2.8 61-9.7 58.2-12.5-2.8-2.8-54.7-2.8-54.7 0 0-1.4-96.3 0-99.1 1.4-2.8-3.4-66.5-3.4-66.5z"/>
	<path id="Layer" class="s2" d="m611 194.5c0 0 6.2 33.9 6.2 35.3 0 1.4-33.2-2.8-36-2.8-2.8 0 7.6-43.6 7.6-43.6l5.5-2.1z"/>
</svg>